<svg width="27" height="27" viewBox="0 0 27 27" fill="none" xmlns="http://www.w3.org/2000/svg">
<path d="M13.5001 24.75C19.7133 24.75 24.7501 19.7132 24.7501 13.5C24.7501 7.2868 19.7133 2.25 13.5001 2.25C7.28686 2.25 2.25006 7.2868 2.25006 13.5C2.25006 19.7132 7.28686 24.75 13.5001 24.75Z" fill="white"/>
<path d="M14.6251 6.75C14.6251 6.12868 14.1214 5.625 13.5001 5.625C12.8787 5.625 12.3751 6.12868 12.3751 6.75V13.5C12.3751 14.1213 12.8787 14.625 13.5001 14.625C14.1214 14.625 14.6251 14.1213 14.6251 13.5V6.75Z" fill="#D9D9D9"/>
<path d="M13.5001 12.375C12.8787 12.375 12.3751 12.8787 12.3751 13.5C12.3751 14.1213 12.8787 14.625 13.5001 14.625H19.1251C19.7464 14.625 20.2501 14.1213 20.2501 13.5C20.2501 12.8787 19.7464 12.375 19.1251 12.375H13.5001Z" fill="#909090"/>
<path d="M13.5001 15.75C14.7427 15.75 15.7501 14.7426 15.7501 13.5C15.7501 12.2574 14.7427 11.25 13.5001 11.25C12.2574 11.25 11.2501 12.2574 11.2501 13.5C11.2501 14.7426 12.2574 15.75 13.5001 15.75Z" fill="#374151"/>
<path d="M13.5001 24.75C19.7132 24.75 24.7501 19.7131 24.7501 13.5C24.7501 7.28682 19.7132 2.25 13.5001 2.25C9.52989 2.25 6.03998 4.30661 4.03765 7.41259L1.12506 4.5V12.375H9.00006L5.67525 9.05019C7.2241 6.33243 10.148 4.5 13.5001 4.5C18.4706 4.5 22.5001 8.52945 22.5001 13.5C22.5001 18.4706 18.4706 22.5 13.5001 22.5C8.91039 22.5 5.12327 19.0646 4.56969 14.625H2.30555C2.86997 20.31 7.6666 24.75 13.5001 24.75Z" fill="#3799F4"/>
</svg>
